<?xml version="1.0" standalone="no"?><!DOCTYPE svg PUBLIC "-//W3C//DTD SVG 1.1//EN" "http://www.w3.org/Graphics/SVG/1.1/DTD/svg11.dtd"><svg t="1582268293803" class="icon" viewBox="0 0 1024 1024" version="1.1" xmlns="http://www.w3.org/2000/svg" p-id="1916" xmlns:xlink="http://www.w3.org/1999/xlink" width="200" height="200"><defs><style type="text/css"></style></defs><path d="M486.5 532.2h48.2v30h-48.2zM486.5 450.1h48.2v30h-48.2z" fill="#58BF5B" p-id="1917"></path><path d="M596 801.2c16.8-19.6 26.9-45.1 26.9-72.9 0-42.3-23.5-79.3-58.2-98.4V387.8c17.4-15.2 28.5-37.5 28.5-62.4 0-38.1-25.9-70.3-61-79.8-3.9-1-6.7-4.5-6.7-8.6V64.2h-30v173c-0.1 4-2.9 7.4-6.7 8.3-35.1 9.6-61 41.7-61 79.8 0 25 11.2 47.5 28.8 62.7v241.6c-34.8 19.1-58.5 56.2-58.5 98.6 0 28.5 10.7 54.6 28.3 74.5L269.2 959.9l0.3 0.3h41.9l137.8-137.8c13.7 9 29.4 15 46.4 17.3v120.5h30V839.7c17.7-2.4 34.1-8.9 48.2-18.5l139 139h41.9l0.3-0.3-159-158.7z m-85.6-528.6c29.1 0 52.8 23.7 52.8 52.8 0 29.1-23.7 52.8-52.8 52.8-29.1 0-52.8-23.7-52.8-52.8 0.1-29.1 23.8-52.8 52.8-52.8z m24.3 131.9v214c-7.8-1.7-15.9-2.6-24.3-2.6-8.2 0-16.2 0.9-23.9 2.6V404.6c7.6 2.3 15.6 3.5 23.9 3.5 8.5 0.1 16.6-1.2 24.3-3.6z m-24.3 403.4c-43.9 0-79.6-35.7-79.6-79.6 0-43.9 35.7-79.6 79.6-79.6 43.9 0 79.6 35.7 79.6 79.6 0 43.9-35.7 79.6-79.6 79.6z" fill="#23548B" p-id="1918"></path></svg>